<mxfile host="app.diagrams.net" modified="2025-08-21T14:03:23.749Z" agent="5.0" version="24.7.17" etag="generated">
  <diagram name="Controller Frontend Flow" id="controller-frontend-flow">
    
<mxGraphModel dx="1422" dy="794" grid="1" gridSize="10" guides="1" tooltips="1" connect="1" arrows="1" fold="1" page="1" pageScale="1" pageWidth="827" pageHeight="1169">
  <root>
    <mxCell id="0"/>
    <mxCell id="1" parent="0"/>
    
    <!-- Start State -->
    <mxCell id="start" value="Landing Page" style="ellipse;whiteSpace=wrap;html=1;fillColor=#4F46E5;fontColor=white;strokeColor=white;" vertex="1" parent="1">
      <mxGeometry x="360" y="40" width="120" height="60" as="geometry"/>
    </mxCell>
    
    <!-- Create Session -->
    <mxCell id="create" value="Create Session\n(Enter host name)" style="rounded=1;whiteSpace=wrap;html=1;fillColor=#4F46E5;fontColor=white;strokeColor=white;" vertex="1" parent="1">
      <mxGeometry x="360" y="140" width="120" height="60" as="geometry"/>
    </mxCell>
    
    <!-- Session Config -->
    <mxCell id="config" value="Session Config\n(Auto-generate ID)" style="rounded=1;whiteSpace=wrap;html=1;fillColor=#4F46E5;fontColor=white;strokeColor=white;" vertex="1" parent="1">
      <mxGeometry x="360" y="240" width="120" height="60" as="geometry"/>
    </mxCell>
    
    <!-- Control Room -->
    <mxCell id="control" value="Control Room\n(Host PC Interface)" style="rounded=1;whiteSpace=wrap;html=1;fillColor=#4F46E5;fontColor=white;strokeColor=white;" vertex="1" parent="1">
      <mxGeometry x="360" y="340" width="120" height="60" as="geometry"/>
    </mxCell>
    
    <!-- Lobby Management -->
    <mxCell id="lobby_mgmt" value="Lobby Management\n(Monitor players)" style="rounded=1;whiteSpace=wrap;html=1;fillColor=#4F46E5;fontColor=white;strokeColor=white;" vertex="1" parent="1">
      <mxGeometry x="360" y="440" width="120" height="60" as="geometry"/>
    </mxCell>
    
    <!-- Quiz Control -->
    <mxCell id="quiz_control" value="Quiz Control\n(Manage segments)" style="rounded=1;whiteSpace=wrap;html=1;fillColor=#4F46E5;fontColor=white;strokeColor=white;" vertex="1" parent="1">
      <mxGeometry x="200" y="540" width="120" height="60" as="geometry"/>
    </mxCell>
    
    <!-- Video Management -->
    <mxCell id="video_mgmt" value="Video Management\n(Create/manage rooms)" style="rounded=1;whiteSpace=wrap;html=1;fillColor=#4F46E5;fontColor=white;strokeColor=white;" vertex="1" parent="1">
      <mxGeometry x="520" y="540" width="120" height="60" as="geometry"/>
    </mxCell>
    
    <!-- End State -->
    <mxCell id="end" value="Session Complete" style="ellipse;whiteSpace=wrap;html=1;fillColor=#059669;fontColor=white;strokeColor=white;" vertex="1" parent="1">
      <mxGeometry x="360" y="640" width="120" height="60" as="geometry"/>
    </mxCell>
    
    <!-- Transitions -->
    <mxCell edge="1" parent="1" source="start" target="create">
      <mxGeometry relative="1" as="geometry"/>
    </mxCell>
    <mxCell edge="1" parent="1" source="create" target="config">
      <mxGeometry relative="1" as="geometry"/>
    </mxCell>
    <mxCell edge="1" parent="1" source="config" target="control">
      <mxGeometry relative="1" as="geometry"/>
    </mxCell>
    <mxCell edge="1" parent="1" source="control" target="lobby_mgmt">
      <mxGeometry relative="1" as="geometry"/>
    </mxCell>
    <mxCell edge="1" parent="1" source="lobby_mgmt" target="quiz_control">
      <mxGeometry relative="1" as="geometry"/>
    </mxCell>
    <mxCell edge="1" parent="1" source="lobby_mgmt" target="video_mgmt">
      <mxGeometry relative="1" as="geometry"/>
    </mxCell>
    <mxCell edge="1" parent="1" source="quiz_control" target="end">
      <mxGeometry relative="1" as="geometry"/>
    </mxCell>
    <mxCell edge="1" parent="1" source="video_mgmt" target="end">
      <mxGeometry relative="1" as="geometry"/>
    </mxCell>
    
  </root>
</mxGraphModel>
  </diagram>
</mxfile>